<svg width="18" height="18" viewBox="0 0 18 19" fill="#fff" xmlns="http://www.w3.org/2000/svg">
<path fill-rule="evenodd" clip-rule="evenodd" d="M8.30009 15.4054C8.30009 15.792 8.61348 16.1054 9.00008 16.1054C9.38667 16.1054 9.70007 15.792 9.70007 15.4054L9.70007 9.80535L15.3002 9.80535C15.6868 9.80535 16.0001 9.49195 16.0001 9.10536C16.0001 8.71876 15.6868 8.40537 15.3002 8.40537L9.70007 8.40537L9.70007 2.80546C9.70007 2.41887 9.38667 2.10547 9.00008 2.10547C8.61349 2.10547 8.30009 2.41887 8.30009 2.80546L8.30009 8.40537L2.70023 8.40536C2.31364 8.40536 2.00024 8.71876 2.00024 9.10535C2.00024 9.49195 2.31364 9.80534 2.70023 9.80534L8.30009 9.80535L8.30009 15.4054Z"/>
</svg>
