<svg width="12" height="12" viewBox="0 0 12 12" fill="#fff" xmlns="http://www.w3.org/2000/svg">
<g id="icon" clip-path="url(#clip0_16045_95007)">
<g id="Union">
<path fill-rule="evenodd" clip-rule="evenodd" d="M9.57444 3.74043C9.57444 5.71452 7.97413 7.31484 6.00003 7.31484C4.02594 7.31484 2.42562 5.71452 2.42562 3.74043C2.42562 1.76633 4.02594 0.166016 6.00003 0.166016C7.97413 0.166016 9.57444 1.76633 9.57444 3.74043ZM8.8085 3.74043C8.8085 5.2915 7.55111 6.54889 6.00003 6.54889C4.44896 6.54889 3.19156 5.2915 3.19156 3.74043C3.19156 2.18935 4.44896 0.931961 6.00003 0.931961C7.55111 0.931961 8.8085 2.18935 8.8085 3.74043Z" />
<path d="M3.9443 7.95313C2.14485 7.95313 0.571943 9.16714 0.116036 10.9079L0.0125892 11.3029C-0.0409989 11.5075 0.0814278 11.7168 0.286037 11.7704C0.490646 11.8239 0.699956 11.7015 0.753544 11.4969L0.856991 11.1019C1.22466 9.69811 2.49313 8.71907 3.9443 8.71907H8.0557C9.50687 8.71907 10.7753 9.69811 11.143 11.1019L11.2465 11.4969C11.3 11.7015 11.5094 11.8239 11.714 11.7704C11.9186 11.7168 12.041 11.5075 11.9874 11.3029L11.884 10.9079C11.4281 9.16714 9.85515 7.95313 8.0557 7.95313H3.9443Z"/>
</g>
</g>
<defs>
<clipPath id="clip0_16045_95007">
<rect width="12" height="12" fill="white"/>
</clipPath>
</defs>
</svg>
