<svg width="24" height="24" viewBox="0 0 24 24" fill="#fff" xmlns="http://www.w3.org/2000/svg">
<path d="M12.5 13.25C12.5 13.9404 11.9404 14.5 11.25 14.5C10.5596 14.5 10 13.9404 10 13.25C10 12.5596 10.5596 12 11.25 12C11.9404 12 12.5 12.5596 12.5 13.25Z"/>
<path d="M6.25 19.5C6.94036 19.5 7.5 18.9404 7.5 18.25C7.5 17.5596 6.94036 17 6.25 17C5.55964 17 5 17.5596 5 18.25C5 18.9404 5.55964 19.5 6.25 19.5Z"/>
<path d="M12.5 18.25C12.5 18.9404 11.9404 19.5 11.25 19.5C10.5596 19.5 10 18.9404 10 18.25C10 17.5596 10.5596 17 11.25 17C11.9404 17 12.5 17.5596 12.5 18.25Z"/>
<path d="M17.25 14.5C17.9404 14.5 18.5 13.9404 18.5 13.25C18.5 12.5596 17.9404 12 17.25 12C16.5596 12 16 12.5596 16 13.25C16 13.9404 16.5596 14.5 17.25 14.5Z"/>
<path fill-rule="evenodd" clip-rule="evenodd" d="M8.5 0.75C8.5 0.335786 8.16421 0 7.75 0C7.33579 0 7 0.335786 7 0.75V3H4C1.79086 3 0 4.79086 0 7V20C0 22.2091 1.79086 24 4 24H20C22.2091 24 24 22.2091 24 20V7C24 4.79086 22.2091 3 20 3H17.5V0.75C17.5 0.335786 17.1642 0 16.75 0C16.3358 0 16 0.335786 16 0.75V3H8.5V0.75ZM16 5.25V4.5H8.5V5.25C8.5 5.66421 8.16421 6 7.75 6C7.33579 6 7 5.66421 7 5.25V4.5H4C2.61929 4.5 1.5 5.61929 1.5 7V8.5L22.5 8.5V7C22.5 5.61929 21.3807 4.5 20 4.5H17.5V5.25C17.5 5.66421 17.1642 6 16.75 6C16.3358 6 16 5.66421 16 5.25ZM22.5 10L1.5 10V20C1.5 21.3807 2.61929 22.5 4 22.5H20C21.3807 22.5 22.5 21.3807 22.5 20V10Z"/>
</svg>
