<svg width="24" height="25" viewBox="0 0 24 25" fill="#fff" xmlns="http://www.w3.org/2000/svg">
<path fill-rule="evenodd" clip-rule="evenodd" d="M4 5.48535H14C15.3807 5.48535 16.5 6.60464 16.5 7.98535V17.9854C16.5 19.3661 15.3807 20.4854 14 20.4854H4C2.61929 20.4854 1.5 19.3661 1.5 17.9854V7.98535C1.5 6.60464 2.61929 5.48535 4 5.48535ZM0 7.98535C0 5.77621 1.79086 3.98535 4 3.98535H14C16.2091 3.98535 18 5.77621 18 7.98535V10.4445C18.3829 9.79355 18.9258 9.2144 19.6288 8.76704L22.4631 6.96336C23.1288 6.53972 24 7.01793 24 7.80702V18.1637C24 18.9528 23.1289 19.431 22.4631 19.0073L19.6288 17.2037C18.9258 16.7563 18.3829 16.1772 18 15.5262V17.9854C18 20.1945 16.2091 21.9854 14 21.9854H4C1.79086 21.9854 0 20.1945 0 17.9854V7.98535ZM20.4341 10.0325L22.5 8.71786V17.2528L20.4341 15.9382C18.2728 14.5628 18.2728 11.4079 20.4341 10.0325Z"/>
</svg>
