<svg width="24" height="25" viewBox="0 0 24 25" fill="#fff" xmlns="http://www.w3.org/2000/svg">
<path fill-rule="evenodd" clip-rule="evenodd" d="M2.74604 21.4497C1.1169 20.6256 0 18.9359 0 16.9854V8.98535C0 6.22393 2.23858 3.98535 5 3.98535H13C14.9459 3.98535 16.6321 5.09691 17.4584 6.71969L19.7734 4.40472C20.0663 4.11183 20.5411 4.11183 20.834 4.40472C21.1269 4.69761 21.1269 5.17249 20.834 5.46538L3.8947 22.4047C3.60181 22.6976 3.12693 22.6976 2.83404 22.4047C2.57422 22.1449 2.54488 21.7419 2.74604 21.4497ZM5 5.48535H13C14.5401 5.48535 15.8479 6.48013 16.3159 7.8622L3.87685 20.3013C2.49477 19.8333 1.5 18.5255 1.5 16.9854V8.98535C1.5 7.05236 3.067 5.48535 5 5.48535Z"/>
<path fill-rule="evenodd" clip-rule="evenodd" d="M13 20.4854H7.81396L6.31396 21.9854H13C15.7614 21.9854 18 19.7468 18 16.9854V15.5262C18.3829 16.1772 18.9258 16.7563 19.6288 17.2037L22.4631 19.0073C23.1289 19.431 24 18.9528 24 18.1637V7.80702C24 7.01793 23.1288 6.53972 22.4631 6.96336L19.6288 8.76704C19.522 8.835 19.4189 8.90599 19.3195 8.97982L18.2831 10.0163C18.1806 10.1549 18.0862 10.2979 18 10.4445V10.2993L16.5 11.7993V16.9854C16.5 18.9183 14.933 20.4854 13 20.4854ZM20.4341 10.0325L22.5 8.71786V17.2528L20.4341 15.9382C18.2728 14.5628 18.2728 11.4079 20.4341 10.0325Z"/>
</svg>
