<svg width="18" height="18" viewBox="0 0 18 18" fill="#fff" xmlns="http://www.w3.org/2000/svg">
<path d="M14.6477 6.39775C14.8674 6.17808 14.8674 5.82192 14.6477 5.60225C14.4281 5.38258 14.0719 5.38258 13.8523 5.60225L8.25 11.2045L5.64775 8.60225C5.42808 8.38258 5.07192 8.38258 4.85225 8.60225C4.63258 8.82192 4.63258 9.17808 4.85225 9.39775L7.85225 12.3977C8.07192 12.6174 8.42808 12.6174 8.64775 12.3977L14.6477 6.39775Z"/>
<path fill-rule="evenodd" clip-rule="evenodd" d="M18 9C18 13.9706 13.9706 18 9 18C4.02944 18 0 13.9706 0 9C0 4.02944 4.02944 0 9 0C13.9706 0 18 4.02944 18 9ZM16.875 9C16.875 13.3492 13.3492 16.875 9 16.875C4.65076 16.875 1.125 13.3492 1.125 9C1.125 4.65076 4.65076 1.125 9 1.125C13.3492 1.125 16.875 4.65076 16.875 9Z"/>
</svg>
