<svg width="18" height="18" viewBox="0 0 19 18" fill="#ffffff" xmlns="http://www.w3.org/2000/svg">
<path fill-rule="evenodd" clip-rule="evenodd" d="M13.0082 1.84765C14.029 0.826826 15.6841 0.826826 16.7049 1.84765C17.7257 2.86847 17.7257 4.52354 16.7049 5.54436L9.28495 12.9643C9.18394 13.0653 9.05619 13.1354 8.91672 13.1663L5.5312 13.9158C4.99574 14.0343 4.51828 13.5568 4.63682 13.0214L5.38629 9.63585C5.41716 9.49638 5.48722 9.36863 5.58823 9.26763L13.0082 1.84765ZM15.9094 4.74887L8.56678 12.0915L5.86237 12.6902L6.46106 9.98579L13.8037 2.64314C14.3852 2.06166 15.328 2.06166 15.9094 2.64314C16.4909 3.22462 16.4909 4.16739 15.9094 4.74887Z"/>
<path d="M1.64148 6.93569C1.64148 4.34685 3.74014 2.24819 6.32898 2.24819H9.93835C10.249 2.24819 10.5009 1.99635 10.5009 1.68569C10.5009 1.37503 10.249 1.12319 9.93835 1.12319H6.32898C3.11882 1.12319 0.516479 3.72553 0.516479 6.93569V12.1857C0.516479 15.3958 3.11882 17.9982 6.32898 17.9982H11.579C14.7891 17.9982 17.3915 15.3958 17.3915 12.1857V8.57631C17.3915 8.26565 17.1396 8.01381 16.829 8.01381C16.5183 8.01381 16.2665 8.26565 16.2665 8.57631V12.1857C16.2665 14.7745 14.1678 16.8732 11.579 16.8732H6.32898C3.74014 16.8732 1.64148 14.7745 1.64148 12.1857V6.93569Z"/>
</svg>
