<svg width="24" height="21" viewBox="0 0 24 21" fill="#b3b3b3" xmlns="http://www.w3.org/2000/svg">
<path fill-rule="evenodd" clip-rule="evenodd" d="M15.75 0C18.3734 0 20.5 2.12665 20.5 4.75V5.5C20.5 5.91421 20.1642 6.25 19.75 6.25C19.3358 6.25 19 5.91421 19 5.5V4.75C19 2.95507 17.5449 1.5 15.75 1.5H4.75C2.95507 1.5 1.5 2.95507 1.5 4.75V19.1237C1.5 19.3535 1.78387 19.4616 1.93669 19.29L6.50339 14.1628H8.5C8.91421 14.1628 9.25 14.4986 9.25 14.9128C9.25 15.327 8.91421 15.6628 8.5 15.6628H7.17609L3.0568 20.2877C1.98711 21.4887 0 20.732 0 19.1237V4.75C0 2.12665 2.12665 0 4.75 0H15.75ZM20.4944 15.9419H15C13.6193 15.9419 12.5 14.8226 12.5 13.4419V12C12.5 10.6193 13.6193 9.5 15 9.5H20C21.3807 9.5 22.5 10.6193 22.5 12V18.1359L20.4944 15.9419ZM22.2619 20.0986L19.8333 17.4419H15C12.7909 17.4419 11 15.651 11 13.4419V12C11 9.79086 12.7909 8 15 8H20C22.2091 8 24 9.79086 24 12V19.4239C24 20.3366 22.8777 20.7723 22.2619 20.0986Z" />
</svg>
