<svg width="24" height="24" viewBox="0 0 24 24" fill="#b3b3b3" xmlns="http://www.w3.org/2000/svg">
<g filter="url(#filter0_d_14247_78411)">
<path fill-rule="evenodd" clip-rule="evenodd" d="M20.6297 14.2448C20.6297 14.2491 20.6298 14.2534 20.6298 14.2576V16.2846C20.6298 18.204 19.9369 20.1439 18.4681 21.6053C16.9927 23.0733 14.7941 24 11.8921 24C8.27759 24 6.29619 22.8342 5.00714 21.2576C4.38867 20.5012 3.95117 19.6757 3.57274 18.9438L3.50385 18.8105C3.14291 18.1115 2.84074 17.5264 2.46422 17.0477C2.33925 16.8888 2.19802 16.726 2.03265 16.5353C1.89981 16.3821 1.75138 16.211 1.5833 16.0095C1.23564 15.5928 0.853182 15.1006 0.55408 14.5708C0.257648 14.0458 0.0110526 13.4286 0.000360328 12.769C-0.0108522 12.0773 0.239176 11.4075 0.811847 10.825C1.32489 10.3032 1.94582 10.088 2.5841 10.1125C3.18947 10.1358 3.76862 10.3714 4.27061 10.6642C4.74664 10.9417 5.20438 11.3011 5.61701 11.677V4.69782C5.61701 3.34413 6.71439 2.24676 8.06807 2.24676C8.39319 2.24676 8.70351 2.31005 8.98741 2.425C9.00138 1.08332 10.0933 0 11.4383 0C12.7833 0 13.8753 1.08332 13.8893 2.425C14.1732 2.31005 14.4835 2.24676 14.8086 2.24676C16.1536 2.24676 17.2456 3.33009 17.2595 4.67178C17.5433 4.5569 17.8536 4.49364 18.1786 4.49364C19.5323 4.49364 20.6297 5.59101 20.6297 6.9447V14.2448ZM10.5191 12.0088V12.7686C10.5191 13.1916 10.1762 13.5345 9.75318 13.5345C9.33015 13.5345 8.98722 13.1916 8.98722 12.7686V4.69782C8.98722 4.19019 8.57571 3.77867 8.06807 3.77867C7.56044 3.77867 7.14893 4.19019 7.14893 4.69782V13.685C7.14893 14.1081 6.806 14.451 6.38297 14.451C6.04632 14.451 5.7604 14.2338 5.65767 13.9319C5.64199 13.9163 5.62684 13.8998 5.6123 13.8826C5.06326 13.2311 4.27616 12.4407 3.49894 11.9875C3.11122 11.7614 2.78288 11.6532 2.52524 11.6433C2.30051 11.6347 2.10291 11.6969 1.9042 11.899C1.61097 12.1973 1.5277 12.4745 1.53207 12.7442C1.53696 13.046 1.65484 13.4046 1.88805 13.8177C2.1186 14.226 2.43097 14.6342 2.75961 15.0281C2.88108 15.1737 3.01584 15.3297 3.14848 15.4833C3.34231 15.7077 3.53163 15.9269 3.66828 16.1006C4.13947 16.6996 4.50651 17.4119 4.84783 18.0742L4.93349 18.2402C5.31308 18.9743 5.68699 19.6689 6.1931 20.2879C7.15322 21.4622 8.67368 22.4681 11.8921 22.4681C14.4564 22.4681 16.2437 21.6575 17.3876 20.5194C18.538 19.3748 19.0979 17.8399 19.0979 16.2846V14.2596C19.0978 14.2554 19.0977 14.2511 19.0977 14.2468V6.9447C19.0977 6.43707 18.6862 6.02555 18.1786 6.02555C17.6775 6.02555 17.27 6.42662 17.2597 6.9253V11.9999L17.2595 12.0176V13.6049C17.2595 14.0279 16.9165 14.3708 16.4935 14.3708C16.0705 14.3708 15.7275 14.0279 15.7275 13.6049V6.9447L15.7277 6.91305V4.69782C15.7277 4.19019 15.3162 3.77867 14.8086 3.77867C14.301 3.77867 13.8894 4.19019 13.8894 4.69782V11.9999C13.8894 12.1983 13.8141 12.379 13.6904 12.515C13.6732 12.534 13.655 12.5521 13.6359 12.5693C13.5002 12.6915 13.3205 12.7659 13.1234 12.7659C12.7004 12.7659 12.3575 12.423 12.3575 12V2.45106C12.3575 1.94343 11.946 1.53191 11.4383 1.53191C10.9307 1.53191 10.5192 1.94343 10.5192 2.45106V12C10.5192 12.0029 10.5192 12.0059 10.5191 12.0088Z"/>
</g>
<defs>
<filter id="filter0_d_14247_78411" x="-24" y="-24" width="68.6298" height="72" filterUnits="userSpaceOnUse" color-interpolation-filters="sRGB">
<feFlood flood-opacity="0" result="BackgroundImageFix"/>
<feColorMatrix in="SourceAlpha" type="matrix" values="0 0 0 0 0 0 0 0 0 0 0 0 0 0 0 0 0 0 0 0" result="hardAlpha"/>
<feOffset/>
<feGaussianBlur stdDeviation="12"/>
<feComposite in2="hardAlpha" operator="out"/>
<feColorMatrix type="matrix" values="0 0 0 0 0 0 0 0 0 0 0 0 0 0 0 0 0 0 0 0"/>
<feBlend mode="normal" in2="BackgroundImageFix" result="effect1_dropShadow_14247_78411"/>
<feBlend mode="normal" in="SourceGraphic" in2="effect1_dropShadow_14247_78411" result="shape"/>
</filter>
</defs>
</svg>
