<svg width="12" height="12" viewBox="0 0 12 12" fill="#ffffff" xmlns="http://www.w3.org/2000/svg">
<g id="icon" clip-path="url(#clip0_16045_94996)">
<path id="Union" fill-rule="evenodd" clip-rule="evenodd" d="M2.5 4.75789C2.5 4.33149 2.18637 3.9791 1.7795 3.92344C2.01977 2.13572 3.53633 0.757895 5.37134 0.757895H6.62737C8.46244 0.757895 9.97903 2.13581 10.2192 3.92362C9.81298 3.97984 9.5 4.33193 9.5 4.75789V7.62105C9.5 7.9962 9.74275 8.31405 10.0782 8.42295C9.94204 9.07351 9.52168 9.55219 8.98376 9.90396C8.50706 10.2157 7.95552 10.4136 7.48211 10.5227C7.38146 9.92707 6.86813 9.47368 6.25 9.47368H5.75C5.05964 9.47368 4.5 10.0392 4.5 10.7368C4.5 11.4345 5.05964 12 5.75 12H6.25C6.73196 12 7.1502 11.7244 7.3588 11.3206C7.9583 11.2151 8.72603 10.9753 9.39124 10.5402C10.0951 10.0799 10.7096 9.38044 10.8466 8.38178C11.5159 8.16308 12 7.52814 12 6.77895V5.6C12 4.90437 11.5827 4.30725 10.9872 4.05035C10.8009 1.78213 8.92007 0 6.62737 0H5.37134C3.07844 0 1.19752 1.78244 1.01145 4.05093C0.416707 4.30815 0 4.9049 0 5.6V6.77895C0 7.70911 0.746192 8.46316 1.66667 8.46316C2.1269 8.46316 2.5 8.08613 2.5 7.62105V4.75789ZM10.25 4.75789L10.25 7.62105C10.25 7.66756 10.2873 7.70526 10.3333 7.70526C10.8396 7.70526 11.25 7.29054 11.25 6.77895V5.6C11.25 5.08841 10.8396 4.67368 10.3333 4.67368C10.2873 4.67368 10.25 4.71139 10.25 4.75789ZM1.75 7.62105V4.75789C1.75 4.71139 1.71269 4.67368 1.66667 4.67368C1.16041 4.67368 0.75 5.08841 0.75 5.6V6.77895C0.75 7.29054 1.16041 7.70526 1.66667 7.70526C1.71269 7.70526 1.75 7.66756 1.75 7.62105ZM5.75 10.2316H6.25C6.52614 10.2316 6.75 10.4578 6.75 10.7368C6.75 11.0159 6.52614 11.2421 6.25 11.2421H5.75C5.47386 11.2421 5.25 11.0159 5.25 10.7368C5.25 10.4578 5.47386 10.2316 5.75 10.2316Z" />
</g>
</svg>
