<svg width="13" height="12" viewBox="0 0 13 12" fill="none" xmlns="http://www.w3.org/2000/svg">
<g clip-path="url(#clip0_14110_31507)">
<path fill-rule="evenodd" clip-rule="evenodd" d="M10.0744 3.7414C10.0744 5.7155 8.47413 7.31582 6.50003 7.31582C4.52594 7.31582 2.92562 5.7155 2.92562 3.7414C2.92562 1.76731 4.52594 0.166992 6.50003 0.166992C8.47413 0.166992 10.0744 1.76731 10.0744 3.7414ZM9.3085 3.7414C9.3085 5.29248 8.05111 6.54987 6.50003 6.54987C4.94896 6.54987 3.69156 5.29248 3.69156 3.7414C3.69156 2.19033 4.94896 0.932938 6.50003 0.932938C8.05111 0.932938 9.3085 2.19033 9.3085 3.7414Z" fill="white" fill-opacity="0.7"/>
<path d="M4.4443 7.9541C2.64485 7.9541 1.07194 9.16811 0.616036 10.9089L0.512589 11.3038C0.459001 11.5084 0.581428 11.7177 0.786037 11.7713C0.990646 11.8249 1.19996 11.7025 1.25354 11.4979L1.35699 11.1029C1.72466 9.69909 2.99313 8.72005 4.4443 8.72005H8.5557C10.0069 8.72005 11.2753 9.69909 11.643 11.1029L11.7465 11.4979C11.8 11.7025 12.0094 11.8249 12.214 11.7713C12.4186 11.7177 12.541 11.5084 12.4874 11.3038L12.384 10.9088C11.9281 9.16811 10.3551 7.9541 8.5557 7.9541L4.4443 7.9541Z" fill="white" fill-opacity="0.7"/>
</g>
<defs>
<clipPath id="clip0_14110_31507">
<rect width="12" height="12" fill="white" transform="translate(0.5)"/>
</clipPath>
</defs>
</svg>
