<svg width="19" height="18" viewBox="0 0 19 18" fill="#ffffff" xmlns="http://www.w3.org/2000/svg">
<path d="M8.75 4.5C8.75 4.08579 9.08579 3.75 9.5 3.75C9.91421 3.75 10.25 4.08579 10.25 4.5C10.25 4.91421 9.91421 5.25 9.5 5.25C9.08579 5.25 8.75 4.91421 8.75 4.5Z"/>
<path d="M9.5 14.25C9.91421 14.25 10.25 13.9142 10.25 13.5L10.25 7.5C10.25 7.08579 9.91421 6.75 9.5 6.75C9.08579 6.75 8.75 7.08579 8.75 7.5L8.75 13.5C8.75 13.9142 9.08579 14.25 9.5 14.25Z"/>
<path fill-rule="evenodd" clip-rule="evenodd" d="M9.5 18C14.4706 18 18.5 13.9706 18.5 9C18.5 4.02944 14.4706 0 9.5 0C4.52944 0 0.5 4.02944 0.5 9C0.5 13.9706 4.52944 18 9.5 18ZM9.5 16.875C13.8492 16.875 17.375 13.3492 17.375 9C17.375 4.65076 13.8492 1.125 9.5 1.125C5.15076 1.125 1.625 4.65076 1.625 9C1.625 13.3492 5.15076 16.875 9.5 16.875Z"/>
</svg>
