<svg width="24" height="24" viewBox="0 0 24 24" fill="#b3b3b3" xmlns="http://www.w3.org/2000/svg">
<path fill-rule="evenodd" clip-rule="evenodd" d="M12 13C14.7614 13 17 10.7614 17 8C17 5.23858 14.7614 3 12 3C9.23858 3 7 5.23858 7 8C7 10.7614 9.23858 13 12 13ZM12 11.5C13.933 11.5 15.5 9.933 15.5 8C15.5 6.067 13.933 4.5 12 4.5C10.067 4.5 8.5 6.067 8.5 8C8.5 9.933 10.067 11.5 12 11.5Z"  />
<path d="M9.30292 14.25C6.50567 14.25 4.04732 16.1043 3.27886 18.794C3.16506 19.1922 3.39568 19.6073 3.79396 19.7211C4.19224 19.8349 4.60735 19.6043 4.72114 19.206C5.30562 17.1604 7.17539 15.75 9.30292 15.75H14.6971C16.8246 15.75 18.6944 17.1604 19.2789 19.206C19.3927 19.6043 19.8078 19.8349 20.206 19.7211C20.6043 19.6073 20.8349 19.1922 20.7211 18.794C19.9527 16.1043 17.4943 14.25 14.6971 14.25H9.30292Z"  />
<path fill-rule="evenodd" clip-rule="evenodd" d="M7 0C3.13401 0 0 3.13401 0 7V17C0 20.866 3.13401 24 7 24H17C20.866 24 24 20.866 24 17V7C24 3.13401 20.866 0 17 0H7ZM17 1.5H7C3.96243 1.5 1.5 3.96243 1.5 7V17C1.5 20.0376 3.96243 22.5 7 22.5H17C20.0376 22.5 22.5 20.0376 22.5 17V7C22.5 3.96243 20.0376 1.5 17 1.5Z"  />
</svg>
