<svg width="24" height="25" viewBox="0 0 24 25" fill="#ffffff" xmlns="http://www.w3.org/2000/svg">
<path d="M12.0796 0.990234C11.5273 0.990234 11.0796 1.43795 11.0796 1.99023C11.0796 2.54252 11.5273 2.99023 12.0796 2.99023C13.3337 2.99023 14.5756 3.23726 15.7342 3.7172C16.8929 4.19713 17.9457 4.90059 18.8325 5.7874C19.7193 6.67422 20.4228 7.72702 20.9027 8.88569C21.3827 10.0444 21.6297 11.2862 21.6297 12.5404C21.6297 13.0927 22.0774 13.5404 22.6297 13.5404C23.182 13.5404 23.6297 13.0927 23.6297 12.5404C23.6297 11.0236 23.3309 9.52165 22.7505 8.12032C22.17 6.719 21.3193 5.44572 20.2467 4.37319C19.1742 3.30066 17.9009 2.44989 16.4996 1.86944C15.0983 1.28899 13.5963 0.990234 12.0796 0.990234Z"/>
<path d="M12.0796 24.0905C12.6318 24.0905 13.0796 23.6428 13.0796 23.0905C13.0796 22.5382 12.6318 22.0905 12.0796 22.0905C10.8254 22.0905 9.58355 21.8435 8.42488 21.3635C7.2662 20.8836 6.2134 20.1802 5.32659 19.2933C4.43978 18.4065 3.73632 17.3537 3.25638 16.1951C2.77644 15.0364 2.52942 13.7945 2.52942 12.5404C2.52942 11.9881 2.0817 11.5404 1.52942 11.5404C0.977133 11.5404 0.529419 11.9881 0.529419 12.5404C0.529419 14.0572 0.82817 15.5591 1.40862 16.9604C1.98907 18.3617 2.83985 19.635 3.91238 20.7076C4.98491 21.7801 6.25818 22.6309 7.65951 23.2113C9.06084 23.7918 10.5628 24.0905 12.0796 24.0905Z"/>
</svg>
