<svg width="18" height="18" viewBox="0 0 16 18" fill="#ffffff" xmlns="http://www.w3.org/2000/svg">
<path fill-rule="evenodd" clip-rule="evenodd" d="M7.34531 0.1875C5.42111 0.1875 3.84465 1.71547 3.78454 3.63873L3.70955 6.03866C1.89456 6.30064 0.5 7.86246 0.5 9.75V14.25C0.5 16.3211 2.17893 18 4.25 18H11.75C13.8211 18 15.5 16.3211 15.5 14.25V9.75C15.5 7.86252 14.1055 6.30074 12.2906 6.03868L12.2156 3.63873C12.1555 1.71547 10.5791 0.1875 8.65488 0.1875H7.34531ZM11.1639 6L11.0912 3.67387C11.0501 2.35796 9.97143 1.3125 8.65488 1.3125H7.34531C6.02875 1.3125 4.95012 2.35796 4.909 3.67387L4.8363 6H11.1639ZM4.25 7.125H11.75C13.1997 7.125 14.375 8.30025 14.375 9.75V14.25C14.375 15.6997 13.1997 16.875 11.75 16.875H4.25C2.80025 16.875 1.625 15.6997 1.625 14.25V9.75C1.625 8.30025 2.80025 7.125 4.25 7.125Z"/>
</svg>
