<svg width="24" height="24" viewBox="0 0 24 24" fill="#b3b3b3" xmlns="http://www.w3.org/2000/svg">
<path d="M0 5C0 2.23858 2.23858 0 5 0H10C10.5523 0 11 0.447715 11 1C11 1.55228 10.5523 2 10 2H5C3.34315 2 2 3.34315 2 5V19C2 20.6569 3.34315 22 5 22H10C10.5523 22 11 22.4477 11 23C11 23.5523 10.5523 24 10 24H5C2.23858 24 0 21.7614 0 19V5Z"/>
<path d="M20.5858 11L14.2929 4.70711C13.9024 4.31658 13.9024 3.68342 14.2929 3.29289C14.6834 2.90237 15.3166 2.90237 15.7071 3.29289L23.7071 11.2929C23.7107 11.2965 23.7143 11.3001 23.7178 11.3037C23.8925 11.4838 24 11.7293 24 12C24 12.2685 23.8942 12.5122 23.722 12.6919C23.7171 12.697 23.7121 12.7021 23.7071 12.7071L15.7071 20.7071C15.3166 21.0976 14.6834 21.0976 14.2929 20.7071C13.9024 20.3166 13.9024 19.6834 14.2929 19.2929L20.5858 13L11 13C10.4477 13 10 12.5523 10 12C10 11.4477 10.4477 11 11 11L20.5858 11Z"/>
</svg>
