<svg width="18" height="12" viewBox="0 0 18 12" fill="#b3b3b3"  xmlns="http://www.w3.org/2000/svg">
<path d="M0 1.5C0 1.08579 0.335786 0.75 0.75 0.75H17.25C17.6642 0.75 18 1.08579 18 1.5C18 1.91421 17.6642 2.25 17.25 2.25H0.75C0.335786 2.25 0 1.91421 0 1.5Z" />
<path d="M0 6C0 5.58579 0.335786 5.25 0.75 5.25H17.25C17.6642 5.25 18 5.58579 18 6C18 6.41421 17.6642 6.75 17.25 6.75H0.75C0.335786 6.75 0 6.41421 0 6Z" />
<path d="M0.75 9.75C0.335786 9.75 0 10.0858 0 10.5C0 10.9142 0.335786 11.25 0.75 11.25H11.25C11.6642 11.25 12 10.9142 12 10.5C12 10.0858 11.6642 9.75 11.25 9.75H0.75Z" />
</svg>
