<svg width="24" height="25" viewBox="0 0 24 25" fill="#b3b3b3" xmlns="http://www.w3.org/2000/svg">
<path fill-rule="evenodd" clip-rule="evenodd" d="M7.02856 17.1404L2.37004 22.2669C2.06265 22.6052 1.5 22.3877 1.5 21.9306V5.10547C1.5 3.72476 2.61929 2.60547 4 2.60547H20C21.3807 2.60547 22.5 3.72476 22.5 5.10547V14.6404C22.5 16.0211 21.3807 17.1404 20 17.1404H7.02856ZM7.69231 18.6404L3.48016 23.2757C2.25062 24.6287 0 23.7589 0 21.9306V5.10547C0 2.89633 1.79086 1.10547 4 1.10547H20C22.2091 1.10547 24 2.89633 24 5.10547V14.6404C24 16.8495 22.2091 18.6404 20 18.6404H7.69231Z"/>
</svg>
