<svg width="24" height="25" viewBox="0 0 24 25" fill="#ffffff" xmlns="http://www.w3.org/2000/svg">
<g clip-path="url(#clip0_1844_7157)">
<path d="M10.5473 6.49717C10.5473 6.08295 10.8831 5.74717 11.2973 5.74717H12.9278C13.342 5.74717 13.6778 6.08295 13.6778 6.49717C13.6778 6.91138 13.342 7.24717 12.9278 7.24717H11.2973C10.8831 7.24717 10.5473 6.91138 10.5473 6.49717Z" />
<path d="M10.0251 9.62771C10.0251 9.21349 10.3609 8.87771 10.7751 8.87771H13.449C13.8632 8.87771 14.199 9.21349 14.199 9.62771C14.199 10.0419 13.8632 10.3777 13.449 10.3777H10.7751C10.3609 10.3777 10.0251 10.0419 10.0251 9.62771Z" />
<path fill-rule="evenodd" clip-rule="evenodd" d="M6.89469 5.98633C6.89469 3.22491 9.13327 0.986328 11.8947 0.986328H12.3295C15.0909 0.986328 17.3295 3.22491 17.3295 5.98633V7.57835L20.3306 4.57728C20.6235 4.28438 21.0983 4.28438 21.3912 4.57728C21.6841 4.87017 21.6841 5.34505 21.3912 5.63794L3.66925 23.3599C3.37635 23.6528 2.90148 23.6528 2.60859 23.3599C2.31569 23.067 2.31569 22.5922 2.60859 22.2993L6.42926 18.4786C5.69127 17.8393 5.09806 17.0769 4.68896 16.2304C4.27404 15.3718 4.05824 14.4463 4.05824 13.5081C4.05824 13.0939 4.39402 12.7581 4.80824 12.7581C5.22245 12.7581 5.55824 13.0939 5.55824 13.5081C5.55824 14.2143 5.7203 14.9171 6.03953 15.5777C6.35901 16.2388 6.83124 16.8477 7.43573 17.3658C7.4548 17.3821 7.474 17.3984 7.49331 17.4145L8.52859 16.3793C7.52471 15.4648 6.89469 14.147 6.89469 12.682V5.98633ZM9.5909 15.3169L11.3997 13.5081H11.2973C10.8831 13.5081 10.5473 13.1723 10.5473 12.7581C10.5473 12.3439 10.8831 12.0081 11.2973 12.0081H12.8997L15.8295 9.07835V5.98633C15.8295 4.05333 14.2625 2.48633 12.3295 2.48633H11.8947C9.9617 2.48633 8.39469 4.05333 8.39469 5.98633V12.682C8.39469 13.7328 8.85774 14.6754 9.5909 15.3169Z"/>
<path d="M10.2804 18.7987L9.07633 20.0027C9.71793 20.2296 10.3886 20.383 11.0713 20.4603C11.0698 20.4796 11.0691 20.4991 11.0691 20.5188V24.2362C11.0691 24.6505 11.4049 24.9862 11.8191 24.9862C12.2333 24.9862 12.5691 24.6505 12.5691 24.2362V20.5188L12.569 20.5078C13.4565 20.464 14.3319 20.2928 15.1588 19.9992C16.1272 19.6554 17.0138 19.1491 17.7657 18.5047C18.5177 17.8601 19.1216 17.0885 19.5362 16.2304C19.9512 15.3718 20.167 14.4463 20.167 13.5081C20.167 13.0939 19.8312 12.7581 19.417 12.7581C19.0027 12.7581 18.667 13.0939 18.667 13.5081C18.667 14.2143 18.5049 14.9171 18.1857 15.5777C17.8662 16.2388 17.394 16.8477 16.7895 17.3658C16.1848 17.8841 15.4609 18.3002 14.6569 18.5856C13.8529 18.8711 12.9881 19.019 12.1126 19.019C11.4905 19.019 10.8737 18.9443 10.2804 18.7987Z" />
<path d="M11.4193 17.6597L12.9523 16.1268C14.3861 15.8693 15.5168 14.7386 15.7743 13.3048L17.3295 11.7496V12.682C17.3295 15.4434 15.0909 17.682 12.3295 17.682H11.8947C11.7344 17.682 11.5758 17.6745 11.4193 17.6597Z" />
</g>
<defs>
<clipPath id="clip0_1844_7157">
<rect width="24" height="24" fill="white" transform="translate(0 0.986328)"/>
</clipPath>
</defs>
</svg>
