<svg width="24" height="25" viewBox="0 0 24 25" fill="#ffffff" xmlns="http://www.w3.org/2000/svg">
<path d="M11.1846 5.74622C10.7704 5.74622 10.4346 6.082 10.4346 6.49622C10.4346 6.91043 10.7704 7.24622 11.1846 7.24622H12.815C13.2292 7.24622 13.565 6.91043 13.565 6.49622C13.565 6.082 13.2292 5.74622 12.815 5.74622H11.1846Z"/>
<path d="M9.91309 9.62671C9.91309 9.2125 10.2489 8.87671 10.6631 8.87671H13.337C13.7512 8.87671 14.087 9.2125 14.087 9.62671C14.087 10.0409 13.7512 10.3767 13.337 10.3767H10.6631C10.2489 10.3767 9.91309 10.0409 9.91309 9.62671Z"/>
<path d="M11.1846 12.0071C10.7704 12.0071 10.4346 12.3429 10.4346 12.7571C10.4346 13.1713 10.7704 13.5071 11.1846 13.5071H12.815C13.2292 13.5071 13.565 13.1713 13.565 12.7571C13.565 12.3429 13.2292 12.0071 12.815 12.0071H11.1846Z"/>
<path fill-rule="evenodd" clip-rule="evenodd" d="M6.78271 5.98535C6.78271 3.22393 9.02129 0.985352 11.7827 0.985352H12.2175C14.9789 0.985352 17.2175 3.22393 17.2175 5.98535V12.681C17.2175 15.4424 14.9789 17.681 12.2175 17.681H11.7827C9.02129 17.681 6.78271 15.4424 6.78271 12.681V5.98535ZM11.7827 2.48535H12.2175C14.1505 2.48535 15.7175 4.05236 15.7175 5.98535V12.681C15.7175 14.614 14.1505 16.181 12.2175 16.181H11.7827C9.84972 16.181 8.28271 14.614 8.28271 12.681V5.98535C8.28271 4.05236 9.84972 2.48535 11.7827 2.48535Z"/>
<path d="M5.4458 13.5071C5.4458 13.0929 5.11001 12.7571 4.6958 12.7571C4.28159 12.7571 3.9458 13.0929 3.9458 13.5071C3.9458 14.4453 4.1616 15.3707 4.57653 16.2293C4.9912 17.0874 5.59505 17.859 6.3471 18.5036C7.09896 19.1481 7.98557 19.6543 8.95396 19.9981C9.69758 20.2622 10.4804 20.4272 11.2759 20.4896C11.2756 20.499 11.2754 20.5085 11.2754 20.5179V24.2353C11.2754 24.6495 11.6112 24.9853 12.0254 24.9853C12.4396 24.9853 12.7754 24.6495 12.7754 24.2353V20.5179C12.7754 20.5071 12.7752 20.4963 12.7747 20.4855C13.5529 20.4202 14.3184 20.2566 15.0463 19.9981C16.0147 19.6543 16.9013 19.1481 17.6532 18.5036C18.4052 17.859 19.0091 17.0874 19.4238 16.2293C19.8387 15.3707 20.0545 14.4453 20.0545 13.5071C20.0545 13.0929 19.7187 12.7571 19.3045 12.7571C18.8903 12.7571 18.5545 13.0929 18.5545 13.5071C18.5545 14.2132 18.3924 14.9161 18.0732 15.5767C17.7537 16.2378 17.2815 16.8466 16.677 17.3647C16.0723 17.883 15.3485 18.2991 14.5445 18.5846C13.7405 18.87 12.8756 19.018 12.0001 19.018C11.1247 19.018 10.2598 18.87 9.45583 18.5846C8.65181 18.2991 7.92798 17.883 7.32329 17.3647C6.7188 16.8466 6.24658 16.2378 5.92709 15.5767C5.60787 14.9161 5.4458 14.2132 5.4458 13.5071Z"/>
</svg>
