<svg width="24" height="24" viewBox="0 0 24 24" xmlns="http://www.w3.org/2000/svg" fill="#ccc">
<g opacity="0.7">
<path fill-rule="evenodd" clip-rule="evenodd" d="M18.4303 11.5938C18.7094 11.7932 18.7094 12.2081 18.4303 12.4076L6.36418 21.0262C5.95986 21.315 5.42747 20.9012 5.60755 20.4381L8.81829 12.1819C8.86363 12.0654 8.86363 11.936 8.8183 11.8195L5.60756 3.56328C5.42747 3.1002 5.95986 2.68639 6.36418 2.97519L18.4303 11.5938ZM19.5927 14.035L7.52665 22.6537C5.50509 24.0976 2.8431 22.0286 3.74354 19.7132L6.74286 12.0007L3.74355 4.28817C2.84312 1.97278 5.50506 -0.0962717 7.52665 1.34772L19.5927 9.96636C20.9886 10.9634 20.9886 13.038 19.5927 14.035Z" />
</g>
</svg>
