<svg width="24" height="24" viewBox="0 0 24 24" fill="#ffffff" xmlns="http://www.w3.org/2000/svg">
<path fill-rule="evenodd" clip-rule="evenodd" d="M18 12C18 15.3137 15.3137 18 12 18C8.68629 18 6 15.3137 6 12C6 8.68629 8.68629 6 12 6C15.3137 6 18 8.68629 18 12ZM16 12C16 14.2091 14.2091 16 12 16C9.79086 16 8 14.2091 8 12C8 9.79086 9.79086 8 12 8C14.2091 8 16 9.79086 16 12Z"/>
<path fill-rule="evenodd" clip-rule="evenodd" d="M12.5 0C13.8666 0 14.9771 1.0965 14.9996 2.45769C15.565 2.63523 16.1086 2.8616 16.6257 3.13188C17.6042 2.18493 19.1651 2.19468 20.1315 3.16114L20.8386 3.86825C21.8051 4.83468 21.8149 6.39551 20.868 7.37397C21.1383 7.89116 21.3647 8.43493 21.5423 9.00035C22.9035 9.02294 24 10.1334 24 11.5V12.5C24 13.8666 22.9035 14.9771 21.5423 14.9996C21.3647 15.565 21.1383 16.1088 20.868 16.626C21.8149 17.6044 21.8051 19.1653 20.8387 20.1317L20.1316 20.8388C19.1651 21.8053 17.6042 21.815 16.6258 20.8681C16.1087 21.1384 15.565 21.3648 14.9996 21.5423C14.9771 22.9035 13.8666 24 12.5 24H11.5C10.1334 24 9.02294 22.9035 9.00035 21.5423C8.43494 21.3647 7.89116 21.1383 7.37398 20.868C6.39553 21.815 4.83457 21.8053 3.86808 20.8388L3.16097 20.1317C2.19446 19.1652 2.18476 17.6042 3.13188 16.6257C2.8616 16.1086 2.63522 15.565 2.45769 14.9996C1.0965 14.9771 0 13.8666 0 12.5V11.5C0 10.1334 1.0965 9.02293 2.45769 9.00035C2.63523 8.43502 2.86161 7.89133 3.13191 7.37422C2.1848 6.39577 2.1945 4.83477 3.16101 3.86826L3.86812 3.16116C4.83461 2.19466 6.39557 2.18495 7.37402 3.13201C7.8912 2.86167 8.43495 2.63525 9.00035 2.45769C9.02294 1.0965 10.1334 0 11.5 0H12.5ZM9.59958 4.36582L10.9761 3.93352L11.0001 2.49088C11.0046 2.21934 11.2269 2 11.5 2H12.5C12.7731 2 12.9954 2.21934 12.9999 2.49087L13.0239 3.93352L14.4004 4.36582C14.8517 4.50754 15.286 4.68832 15.6993 4.90437L16.979 5.57326L18.0166 4.56904C18.2118 4.38013 18.5242 4.38219 18.7173 4.57535L19.4244 5.28246C19.6176 5.47561 19.6196 5.78794 19.4308 5.98314L18.4266 7.02079L19.0955 8.30048C19.3116 8.71388 19.4924 9.14821 19.6342 9.59958L20.0665 10.9761L21.5091 11.0001C21.7807 11.0046 22 11.2269 22 11.5V12.5C22 12.7731 21.7807 12.9954 21.5091 12.9999L20.0665 13.0239L19.6342 14.4004C19.4924 14.8518 19.3116 15.2861 19.0955 15.6995L18.4266 16.9792L19.4308 18.0168C19.6197 18.212 19.6176 18.5243 19.4245 18.7175L18.7174 19.4246C18.5242 19.6178 18.2119 19.6198 18.0167 19.4309L16.979 18.4267L15.6993 19.0956C15.286 19.3117 14.8517 19.4925 14.4004 19.6342L13.0239 20.0665L12.9999 21.5091C12.9954 21.7807 12.7731 22 12.5 22H11.5C11.2269 22 11.0046 21.7807 11.0001 21.5091L10.9761 20.0665L9.59958 19.6342C9.14821 19.4924 8.71389 19.3116 8.30048 19.0955L7.02067 18.4265L5.98301 19.4309C5.78781 19.6198 5.47546 19.6178 5.2823 19.4246L4.57519 18.7175C4.38202 18.5243 4.37997 18.212 4.56891 18.0168L5.57332 16.9791L4.90436 15.6993C4.68832 15.286 4.50754 14.8517 4.36582 14.4004L3.93352 13.0239L2.49087 12.9999C2.21934 12.9954 2 12.7731 2 12.5V11.5C2 11.2269 2.21934 11.0046 2.49087 11.0001L3.93352 10.9761L4.36582 9.59958C4.50754 9.14828 4.68833 8.71402 4.90438 8.30067L5.57334 7.02083L4.56894 5.9832C4.38 5.78801 4.38205 5.47565 4.57522 5.28248L5.28233 4.57537C5.4755 4.3822 5.78785 4.38015 5.98304 4.56908L7.0207 5.57345L8.30052 4.90446C8.71391 4.68838 9.14823 4.50756 9.59958 4.36582Z"/>
</svg>
