<svg width="48" height="25" viewBox="0 0 48 25" fill="#808080" xmlns="http://www.w3.org/2000/svg">
<rect y="0.986328" width="48" height="24" rx="12" />
<path d="M12.0106 16.1143C11.1546 16.1143 10.4666 15.8423 9.94659 15.2983C9.41859 14.7543 9.16259 14.0343 9.16259 13.1383C9.16259 12.2503 9.41859 11.5303 9.94659 10.9783C10.4666 10.4343 11.1546 10.1623 12.0106 10.1623C12.8586 10.1623 13.5466 10.4343 14.0746 10.9783C14.5866 11.5223 14.8506 12.2423 14.8506 13.1383C14.8506 14.0423 14.5866 14.7623 14.0746 15.2983C13.5466 15.8423 12.8586 16.1143 12.0106 16.1143ZM10.7626 14.6183C11.0746 14.9863 11.4906 15.1623 12.0106 15.1623C12.5306 15.1623 12.9466 14.9863 13.2666 14.6183C13.5706 14.2663 13.7306 13.7703 13.7306 13.1383C13.7306 12.5143 13.5706 12.0183 13.2666 11.6583C12.9466 11.2983 12.5306 11.1143 12.0106 11.1143C11.4906 11.1143 11.0746 11.2983 10.7626 11.6583C10.4426 12.0263 10.2906 12.5143 10.2906 13.1383C10.2906 13.7623 10.4426 14.2583 10.7626 14.6183ZM19.5512 11.7783V10.2903H20.5912V15.9863H19.3912L17.8072 13.4503C17.3752 12.7783 17.0312 12.2023 16.7912 11.7383C16.8072 12.3383 16.8232 13.2583 16.8232 14.4983V15.9863H15.7832V10.2903H16.9832L18.5752 12.8263C19.0472 13.5943 19.3832 14.1703 19.5832 14.5383C19.5592 13.7463 19.5512 12.8263 19.5512 11.7783Z" fill="white"/>
<rect x="27" y="3.98633" width="18" height="18" rx="9" fill="white"/>
</svg>
