<svg width="48" height="25" viewBox="0 0 48 25" fill="#808080" xmlns="http://www.w3.org/2000/svg">
<rect y="0.986328" width="48" height="24" rx="12" />
<rect x="3" y="3.98633" width="18" height="18" rx="9" fill="white"/>
<path d="M28.1523 16.1143C27.2963 16.1143 26.6083 15.8423 26.0883 15.2983C25.5603 14.7543 25.3043 14.0343 25.3043 13.1383C25.3043 12.2503 25.5603 11.5303 26.0883 10.9783C26.6083 10.4343 27.2963 10.1623 28.1523 10.1623C29.0003 10.1623 29.6883 10.4343 30.2163 10.9783C30.7283 11.5223 30.9923 12.2423 30.9923 13.1383C30.9923 14.0423 30.7283 14.7623 30.2163 15.2983C29.6883 15.8423 29.0003 16.1143 28.1523 16.1143ZM26.9043 14.6183C27.2163 14.9863 27.6323 15.1623 28.1523 15.1623C28.6723 15.1623 29.0883 14.9863 29.4083 14.6183C29.7123 14.2663 29.8723 13.7703 29.8723 13.1383C29.8723 12.5143 29.7123 12.0183 29.4083 11.6583C29.0883 11.2983 28.6723 11.1143 28.1523 11.1143C27.6323 11.1143 27.2163 11.2983 26.9043 11.6583C26.5843 12.0263 26.4323 12.5143 26.4323 13.1383C26.4323 13.7623 26.5843 14.2583 26.9043 14.6183ZM35.9489 10.2903V11.2583H33.0049V12.6023H35.6849V13.5303H33.0049V15.9863H31.9249V10.2903H35.9489ZM40.7983 10.2903V11.2583H37.8543V12.6023H40.5343V13.5303H37.8543V15.9863H36.7743V10.2903H40.7983Z" fill="white"/>
</svg>
