<svg width="19" height="18" viewBox="0 0 19 18" fill="#b3b3b3" xmlns="http://www.w3.org/2000/svg">
<path id="Union" fill-rule="evenodd" clip-rule="evenodd" d="M0.53125 5C0.53125 3.34315 1.8744 2 3.53125 2L11.0312 2C12.6881 2 14.0312 3.34315 14.0312 5V6.84435C14.3184 6.35615 14.7256 5.92178 15.2528 5.58627L17.3786 4.23351C17.8779 3.91578 18.5312 4.27444 18.5312 4.86625V12.6337C18.5312 13.2256 17.8779 13.5842 17.3786 13.2665L15.2528 11.9137C14.7256 11.5782 14.3184 11.1439 14.0312 10.6557V12.5C14.0312 14.1569 12.6881 15.5 11.0312 15.5H3.53125C1.8744 15.5 0.53125 14.1569 0.53125 12.5L0.53125 5ZM3.53125 3.125L11.0312 3.125C12.0668 3.125 12.9062 3.96447 12.9062 5V12.5C12.9062 13.5355 12.0668 14.375 11.0312 14.375H3.53125C2.49572 14.375 1.65625 13.5355 1.65625 12.5L1.65625 5C1.65625 3.96447 2.49572 3.125 3.53125 3.125ZM15.8568 6.53539L17.4062 5.54938V11.9506L15.8568 10.9646C14.2359 9.93311 14.2359 7.56689 15.8568 6.53539Z" />
</svg>
