<svg width="18" height="18" viewBox="0 0 18 18" fill="#b3b3b3" xmlns="http://www.w3.org/2000/svg">
<path fill-rule="evenodd" clip-rule="evenodd" d="M4.39974 11.4026C4.6998 11.4026 4.98756 11.5218 5.19973 11.734L9.42802 15.9623L9.42802 2.0661L5.19973 6.29439C4.98756 6.50656 4.6998 6.62575 4.39974 6.62575H2.26272C1.63789 6.62575 1.13136 7.13228 1.13136 7.75712L1.13136 10.2713C1.13136 10.8961 1.63789 11.4026 2.26272 11.4026H4.39974ZM4.39974 5.49439H2.26272C1.01306 5.49439 0 6.50745 0 7.75712L0 10.2713C0 11.5209 1.01306 12.534 2.26272 12.534H4.39974L9.27181 17.406C9.74695 17.8812 10.5594 17.5447 10.5594 16.8727L10.5594 1.15565C10.5594 0.483697 9.74695 0.147181 9.27181 0.622327L4.39974 5.49439Z" />
<path fill-rule="evenodd" clip-rule="evenodd" d="M12.8957 5.25836C13.555 5.63901 14.1025 6.18648 14.4831 6.84578C14.8638 7.50507 15.0642 8.25294 15.0642 9.01422C15.0642 9.7755 14.8638 10.5234 14.4831 11.1827C14.1025 11.842 13.555 12.3894 12.8957 12.7701C12.6252 12.9263 12.2792 12.8336 12.123 12.563C11.9668 12.2925 12.0595 11.9465 12.33 11.7903C12.8173 11.5089 13.222 11.1043 13.5033 10.617C13.7847 10.1297 13.9328 9.57691 13.9328 9.01422C13.9328 8.45153 13.7847 7.89876 13.5033 7.41146C13.222 6.92415 12.8173 6.5195 12.33 6.23815C12.0595 6.08194 11.9668 5.73598 12.123 5.46542C12.2792 5.19486 12.6252 5.10216 12.8957 5.25836Z" />
<path fill-rule="evenodd" clip-rule="evenodd" d="M14.3637 2.7161C15.4693 3.3544 16.3874 4.27246 17.0257 5.37802C17.664 6.48358 18 7.73768 18 9.01428C18 10.2909 17.664 11.545 17.0257 12.6505C16.3874 13.7561 15.4693 14.6742 14.3637 15.3125C14.0932 15.4687 13.7472 15.376 13.591 15.1054C13.4348 14.8348 13.5275 14.4889 13.7981 14.3327C14.7316 13.7937 15.5069 13.0184 16.0459 12.0848C16.5849 11.1513 16.8686 10.0923 16.8686 9.01428C16.8686 7.93628 16.5849 6.87728 16.0459 5.9437C15.5069 5.01013 14.7316 4.23489 13.7981 3.69589C13.5275 3.53968 13.4348 3.19372 13.591 2.92315C13.7472 2.65259 14.0932 2.55989 14.3637 2.7161Z" />
</svg>
