<svg width="24" height="24" viewBox="0 0 24 24" fill="#b3b3b3" xmlns="http://www.w3.org/2000/svg">
<path fill-rule="evenodd" clip-rule="evenodd" d="M1.46967 20.4699L5.27269 16.6669H3C1.34315 16.6669 0 15.3237 0 13.6669V10.3336C0 8.6767 1.34315 7.33356 3 7.33356H5.83333L12.2929 0.874C12.9229 0.244035 14 0.6902 14 1.5811V7.93958L18.0257 3.91387C18.0914 3.80423 18.1809 3.7173 18.2837 3.65587L20.4697 1.46991C20.7626 1.17702 21.2374 1.17702 21.5303 1.46991C21.7611 1.70066 21.81 2.04436 21.6772 2.32304C21.6022 2.35881 21.5318 2.40777 21.4697 2.46991L2.46967 21.4699C2.40752 21.5321 2.35857 21.6024 2.32279 21.6775C2.04412 21.8103 1.70042 21.7613 1.46967 21.5306C1.17678 21.2377 1.17678 20.7628 1.46967 20.4699ZM5.83333 15.1669C6.09604 15.1669 6.35164 15.2358 6.57596 15.3636L12.5 9.43958V2.78821L6.89399 8.39422C6.61269 8.67552 6.23116 8.83356 5.83333 8.83356H3C2.17157 8.83356 1.5 9.50513 1.5 10.3336V13.6669C1.5 14.4953 2.17157 15.1669 3 15.1669H5.83333Z" />
<path d="M7.61368 18.4472L12.2929 23.1264C12.9229 23.7564 14 23.3102 14 22.4193V12.0609L12.5 13.5609V21.2122L8.67434 17.3866L7.61368 18.4472Z" />
<path d="M17.1457 8.91517C17.4419 9.19583 17.6975 9.51888 17.9032 9.87527C18.2762 10.5214 18.4726 11.2542 18.4726 12.0003C18.4726 12.7463 18.2762 13.4792 17.9032 14.1253C17.5302 14.7713 16.9937 15.3079 16.3476 15.6809C15.9889 15.888 15.866 16.3467 16.0731 16.7054C16.2802 17.0641 16.7389 17.187 17.0976 16.9799C17.9717 16.4752 18.6976 15.7494 19.2023 14.8753C19.7069 14.0012 19.9726 13.0096 19.9726 12.0003C19.9726 10.9909 19.7069 9.99938 19.2023 9.12527C18.9307 8.65487 18.595 8.22739 18.2067 7.85423L17.1457 8.91517Z" />
<path d="M19.8985 6.16238C20.434 6.68296 20.8976 7.27697 21.2742 7.92927C21.9888 9.16703 22.365 10.5711 22.365 12.0003C22.365 13.4296 21.9888 14.8337 21.2742 16.0714C20.5596 17.3092 19.5317 18.337 18.294 19.0517C17.9352 19.2588 17.8123 19.7175 18.0194 20.0762C18.2266 20.4349 18.6852 20.5578 19.044 20.3507C20.5098 19.5044 21.727 18.2872 22.5732 16.8214C23.4195 15.3556 23.865 13.6929 23.865 12.0003C23.865 10.3078 23.4195 8.64506 22.5732 7.17927C22.1308 6.41295 21.587 5.71458 20.9593 5.10163L19.8985 6.16238Z" />
</svg>
