<svg width="18" height="18" viewBox="0 0 18 18" fill="#ffffff" xmlns="http://www.w3.org/2000/svg">
<path d="M8.25002 5.8091C8.25002 5.39489 8.5858 5.0591 9.00002 5.0591C9.41423 5.0591 9.75002 5.39489 9.75002 5.8091V10.7081C9.75002 11.1223 9.41423 11.4581 9.00002 11.4581C8.5858 11.4581 8.25002 11.1223 8.25002 10.7081V5.8091Z"/>
<path d="M9.75002 13.2034C9.75002 13.6177 9.41423 13.9534 9.00002 13.9534C8.5858 13.9534 8.25002 13.6177 8.25002 13.2034C8.25002 12.7892 8.5858 12.4534 9.00002 12.4534C9.41423 12.4534 9.75002 12.7892 9.75002 13.2034Z"/>
<path fill-rule="evenodd" clip-rule="evenodd" d="M3.81027 17.0486L14.1901 17.0486C17.0763 17.0486 18.8806 13.9246 17.4383 11.4246L12.2484 2.42878C10.8053 -0.0726125 7.1951 -0.0726128 5.75199 2.42878L0.562083 11.4246C-0.880224 13.9246 0.924057 17.0486 3.81027 17.0486ZM14.1901 15.9236L3.81027 15.9236C1.78993 15.9236 0.526925 13.7368 1.53654 11.9868L6.72645 2.99096C7.73662 1.23999 10.2637 1.23999 11.2739 2.99096L16.4638 11.9868C17.4734 13.7368 16.2104 15.9236 14.1901 15.9236Z"/>
</svg>
